<svg version="1.1" xmlns="http://www.w3.org/2000/svg" width="1024" height="1024" viewBox="0 0 1024 1024">
<path d="M800.338 488.396l-478.15-478.129c-6.843-6.835-14.717-10.267-23.604-10.267-8.891 0-16.761 3.432-23.6 10.267l-51.294 51.305c-6.85 6.839-10.26 14.695-10.26 23.6s3.411 16.761 10.26 23.6l403.238 403.238-403.238 403.245c-6.85 6.839-10.26 14.709-10.26 23.59 0 8.902 3.411 16.772 10.26 23.611l51.298 51.287c6.839 6.846 14.709 10.257 23.6 10.257 8.887 0 16.758-3.418 23.6-10.257l478.125-478.132c6.835-6.835 10.257-14.709 10.257-23.6s-3.396-16.761-10.232-23.615z"></path>
</svg>
